<?xml version="1.0" encoding="utf-8"?>
<!-- Generator: Adobe Illustrator 16.0.0, SVG Export Plug-In . SVG Version: 6.00 Build 0)  -->
<!DOCTYPE svg PUBLIC "-//W3C//DTD SVG 1.1//EN" "http://www.w3.org/Graphics/SVG/1.1/DTD/svg11.dtd">
<svg version="1.1" id="Calque_1" xmlns="http://www.w3.org/2000/svg" xmlns:xlink="http://www.w3.org/1999/xlink" x="0px" y="0px"
	 width="960px" height="560px" viewBox="0 0 960 560" enable-background="new 0 0 960 560" xml:space="preserve">
<g id="logo">
	<path fill="#72BBF9" d="M135.276,300.965c0,27.594-53.54,44.067-76.191,44.067c-3.089,7.206-4.942,8.031-12.355,8.031
		c-2.06,0-6.795-0.206-6.795-3.295c0-5.767,0.824-11.533,1.235-17.709c0.617-8.442,1.441-16.887,2.471-25.329
		c3.294-29.447,7.824-58.687,14.208-87.516c-6.177,0.412-12.355,0.824-18.327,1.647c-2.059,0.207-4.324,0.824-6.383,0.824
		c-1.853,0-3.089-0.617-3.089-2.676c0-4.119,8.031-5.148,8.031-5.148c6.795-1.03,14.414-2.059,21.622-2.471
		c1.029-4.737,2.265-9.473,3.706-14.209c1.647-5.147,4.736-8.237,9.678-10.296c2.471-1.03,4.942-1.647,7.619-1.647
		c1.03,0,3.5,0,3.5,1.647c0,0.618-0.206,1.03-0.411,1.442c-2.678,6.383-3.914,15.65-5.354,22.445
		c12.561,0,57.041,1.236,57.041,19.151c0,16.267-33.978,34.8-47.98,38.3C102.329,271.725,135.276,281.814,135.276,300.965z
		 M60.732,325.263c0,2.678,0,5.355,0.206,8.03c14.003-1.233,61.982-11.735,61.982-29.65c0-19.976-40.772-28.212-56.011-30.683
		C64.233,290.257,60.732,307.76,60.732,325.263z M76.588,218.802c-3.089,14.827-5.354,29.859-7.825,44.685
		c12.973-3.089,54.569-14.621,54.569-31.094C123.333,220.244,85.237,218.802,76.588,218.802z"/>
	<path fill="#72BBF9" d="M152.575,407.632c0-27.594,32.742-54.774,53.951-68.777c0.207-3.913,0.207-7.825,0.207-11.739
		c0-10.706-0.207-21.209-0.618-31.916c-6.795,11.325-33.977,42.42-47.567,42.42c-9.267,0-11.12-9.061-11.12-16.475
		c0-12.355,3.5-25.327,7.207-37.064c0.823-2.678,1.441-5.354,2.677-7.826c1.647-3.294,3.913-5.766,7.825-5.766
		c4.53,0,8.854,3.707,8.854,8.443c0,3.5-3.089,9.06-4.324,12.355c-2.883,7.208-8.649,24.916-8.649,32.331
		c0,1.234,0,4.323,2.06,4.323c3.295,0,11.943-8.648,14.414-11.12c11.12-11.326,20.18-24.711,30.064-37.271
		c1.854-2.266,4.119-5.766,7.413-5.766c1.442,0,2.884,0.618,4.119,1.442c3.295,2.265,3.295,17.915,3.295,22.857
		c0,36.859-1.236,79.484-21.417,110.785c-6.795,10.503-17.915,21.004-31.093,21.004
		C157.312,429.871,152.575,418.545,152.575,407.632z M161.636,408.044c0,5.148,1.442,13.179,8.031,13.179s12.973-7.619,16.68-12.355
		c10.708-14.415,17.297-43.244,19.15-61.158C187.993,361.711,161.636,383.745,161.636,408.044z"/>
	<path fill="#72BBF9" d="M348.635,339.109l-61.751-75.883v68.178 M257.876,331.404V195.277c0-2.452,0.42-4.599,1.263-6.438
		c0.842-1.84,1.94-3.352,3.296-4.542c1.354-1.187,2.893-2.087,4.615-2.702c1.719-0.613,3.497-0.919,5.329-0.919
		c1.83,0,3.607,0.307,5.329,0.919c1.72,0.615,3.258,1.515,4.615,2.702c1.354,1.19,2.453,2.702,3.296,4.542
		c0.84,1.839,1.263,3.986,1.263,6.438v58.177l57.247-66.11c1.464-2.299,3.167-3.947,5.109-4.943
		c1.939-0.996,3.936-1.495,5.988-1.495c1.758,0,3.462,0.327,5.109,0.978c1.65,0.652,3.113,1.551,4.395,2.701
		c1.282,1.149,2.325,2.512,3.132,4.082c0.806,1.572,1.208,3.277,1.208,5.117c0,2.529-0.878,5.098-2.637,7.703l-50.764,54.842
		l65.581,77.995"/>
	<path fill="#72BBF9" d="M477.462,299.711c-0.446,1.754-1.408,3.153-2.883,4.193c-1.476,1.043-3.383,1.268-5.721,0.671
		l-66.361-16.886c-1.813,9.568-0.766,17.616,3.143,24.144c3.905,6.53,10.147,10.883,18.722,13.065
		c5.263,1.34,10.422,1.858,15.479,1.554c5.058-0.303,10.336-1.07,15.837-2.301c1.318-0.287,2.498-0.297,3.537-0.033
		c1.753,0.446,3,1.457,3.743,3.028c0.739,1.573,0.896,3.203,0.467,4.891c-0.183,0.716-0.491,1.45-0.925,2.205
		c-0.436,0.755-1.002,1.422-1.704,2.004c-2.759,2.135-5.884,3.76-9.386,4.875c-3.499,1.116-7.152,1.811-10.958,2.087
		c-3.805,0.276-7.646,0.216-11.523-0.184c-3.875-0.399-7.567-1.043-11.076-1.937c-7.081-1.8-13.378-4.647-18.889-8.541
		c-5.51-3.892-9.959-8.638-13.341-14.238c-3.383-5.599-5.526-11.989-6.43-19.17c-0.907-7.183-0.473-14.247,1.295-21.2
		c1.504-5.91,4.235-11.615,8.193-17.11c3.956-5.494,8.611-9.982,13.956-13.464c5.349-3.479,11.329-5.918,17.945-7.313
		c6.613-1.394,13.82-1.101,21.615,0.883c7.991,2.033,14.57,5.057,19.739,9.069c5.17,4.014,9.15,8.624,11.942,13.83
		c2.789,5.208,4.428,11.001,4.914,17.385C479.279,287.603,478.835,293.766,477.462,299.711z M458.482,289.484
		c0.535-3.184,0.628-6.687,0.289-10.509c-0.342-3.823-1.316-7.269-2.919-10.34c-1.606-3.071-3.855-5.65-6.748-7.734
		c-2.895-2.086-6.42-3.659-10.578-4.716c-3.767-0.959-7.368-1.149-10.801-0.569c-3.433,0.578-6.6,1.884-9.503,3.91
		c-2.902,2.03-5.475,4.592-7.715,7.687c-2.241,3.097-3.855,6.04-4.841,8.832L458.482,289.484z"/>
	<path fill="#72BBF9" d="M590.305,328.426c-0.447,1.754-1.408,3.153-2.884,4.195s-3.383,1.266-5.722,0.67l-66.36-16.887
		c-1.813,9.569-0.766,17.617,3.144,24.144c3.904,6.53,10.146,10.884,18.722,13.066c5.263,1.34,10.421,1.858,15.479,1.553
		c5.058-0.304,10.336-1.07,15.837-2.3c1.318-0.286,2.497-0.298,3.537-0.033c1.754,0.447,3.001,1.458,3.743,3.028
		c0.74,1.571,0.896,3.203,0.468,4.89c-0.184,0.716-0.491,1.451-0.926,2.205c-0.435,0.756-1.001,1.422-1.703,2.004
		c-2.757,2.136-5.884,3.759-9.385,4.875c-3.5,1.117-7.153,1.813-10.959,2.088c-3.806,0.276-7.646,0.217-11.522-0.184
		c-3.874-0.399-7.566-1.043-11.076-1.936c-7.08-1.803-13.379-4.65-18.889-8.541c-5.512-3.895-9.959-8.641-13.342-14.238
		c-3.382-5.599-5.526-11.989-6.429-19.171c-0.905-7.184-0.473-14.247,1.296-21.2c1.504-5.91,4.234-11.614,8.192-17.109
		c3.957-5.494,8.61-9.982,13.957-13.465c5.349-3.479,11.329-5.918,17.943-7.313c6.614-1.394,13.82-1.102,21.616,0.883
		c7.991,2.033,14.57,5.056,19.74,9.069c5.168,4.014,9.149,8.624,11.94,13.829c2.789,5.207,4.429,11.001,4.915,17.385
		C592.123,316.318,591.676,322.482,590.305,328.426z M571.324,318.201c0.535-3.185,0.629-6.688,0.289-10.51
		c-0.342-3.822-1.315-7.27-2.919-10.341c-1.606-3.071-3.855-5.65-6.748-7.735c-2.895-2.084-6.421-3.656-10.577-4.714
		c-3.769-0.96-7.367-1.149-10.802-0.57c-3.433,0.579-6.601,1.885-9.503,3.911c-2.9,2.029-5.474,4.592-7.714,7.686
		c-2.239,3.098-3.855,6.041-4.843,8.833L571.324,318.201z"/>
	<path fill="#72BBF9" d="M641.881,262.168c1.811-2.748,3.987-5.395,6.536-7.944c2.547-2.546,5.346-4.676,8.395-6.385
		c3.05-1.709,6.301-2.982,9.755-3.821c3.451-0.838,6.987-1.257,10.607-1.257c6.903,0,12.953,1.442,18.15,4.323
		c5.193,2.883,9.518,6.772,12.97,11.664c3.453,4.894,6.033,10.542,7.744,16.943c1.708,6.402,2.563,12.819,2.563,19.255
		s-0.922,12.838-2.766,19.205c-1.845,6.37-4.541,11.9-8.094,16.591c-3.555,4.693-7.928,8.381-13.123,11.062
		c-5.195,2.682-11.177,4.022-17.948,4.022c-3.419,0-6.804-0.421-10.155-1.258c-3.354-0.837-6.535-2.095-9.553-3.771
		c-3.017-1.675-5.815-3.77-8.396-6.285c-2.581-2.512-4.811-5.009-6.687-7.49v44.946c0,1.81-0.337,3.419-1.005,4.827
		c-0.671,1.407-1.56,2.563-2.664,3.469c-1.108,0.903-2.365,1.59-3.772,2.061c-1.408,0.468-2.85,0.704-4.323,0.704
		c-1.475,0-2.916-0.236-4.324-0.704c-1.407-0.471-2.664-1.157-3.771-2.061c-1.105-0.906-1.995-2.062-2.664-3.469
		c-0.671-1.408-1.006-3.018-1.006-4.827v-116.84c0-1.875,0.335-3.502,1.006-4.877c0.669-1.373,1.541-2.529,2.614-3.469
		c1.071-0.938,2.295-1.641,3.669-2.111c1.375-0.468,2.799-0.704,4.273-0.704c1.409,0,2.781,0.219,4.124,0.654
		c1.341,0.437,2.564,1.073,3.669,1.91c1.108,0.839,2.027,1.895,2.766,3.167c0.737,1.274,1.207,2.75,1.408,4.425V262.168z
		 M641.981,294.646c0,4.692,0.485,9.049,1.458,13.071c0.972,4.022,2.529,7.71,4.676,11.061c2.145,3.353,4.942,6.018,8.396,7.994
		c3.451,1.978,7.656,2.966,12.618,2.966c4.961,0,9.066-1.071,12.318-3.218c3.25-2.146,5.832-4.961,7.741-8.446
		c1.912-3.484,3.233-7.44,3.973-11.865c0.737-4.424,1.106-8.411,1.106-11.965c0-3.686-0.369-7.708-1.106-12.066
		c-0.739-4.357-2.046-8.296-3.922-11.815c-1.877-3.52-4.425-6.385-7.642-8.598c-3.218-2.212-7.308-3.318-12.268-3.318
		c-5.43,0-9.905,0.89-13.423,2.665c-3.521,1.777-6.302,4.292-8.348,7.542c-2.044,3.252-3.485,6.938-4.321,11.061
		C642.399,283.837,641.981,288.814,641.981,294.646z"/>
	<path fill="#72BBF9" d="M834.839,291.025c0,1.811-0.587,3.404-1.761,4.777c-1.174,1.374-2.966,2.061-5.379,2.061h-68.475
		c0.604,9.721,3.602,17.262,8.999,22.624c5.395,5.364,12.519,8.044,21.367,8.044c5.429,0,10.558-0.77,15.384-2.313
		c4.827-1.54,9.753-3.585,14.781-6.134c1.206-0.604,2.347-0.905,3.418-0.905c1.811,0,3.268,0.673,4.375,2.012
		c1.104,1.342,1.659,2.884,1.659,4.625c0,0.739-0.119,1.525-0.354,2.364c-0.233,0.839-0.619,1.625-1.155,2.362
		c-2.146,2.749-4.775,5.094-7.895,7.038c-3.115,1.945-6.484,3.519-10.104,4.726c-3.619,1.207-7.357,2.096-11.212,2.664
		s-7.591,0.856-11.21,0.856c-7.308,0-14.113-1.207-20.413-3.62c-6.3-2.414-11.782-5.915-16.44-10.509
		c-4.659-4.59-8.312-10.256-10.959-16.991c-2.648-6.738-3.972-13.691-3.972-20.865c0-6.1,1.239-12.301,3.721-18.602
		c2.479-6.3,5.882-11.798,10.205-16.491c4.325-4.691,9.518-8.53,15.587-11.513c6.065-2.981,13.12-4.474,21.165-4.474
		c8.244,0,15.366,1.307,21.366,3.921c5.999,2.614,10.994,6.101,14.983,10.457c3.987,4.359,7.004,9.57,9.05,15.636
		C833.614,278.844,834.703,284.928,834.839,291.025z M813.924,285.797c-0.268-3.217-1.04-6.636-2.313-10.255
		c-1.273-3.62-3.066-6.72-5.378-9.301c-2.314-2.58-5.13-4.525-8.446-5.832c-3.319-1.308-7.125-1.961-11.413-1.961
		c-3.888,0-7.425,0.704-10.609,2.112s-5.932,3.454-8.244,6.133c-2.313,2.682-4.173,5.799-5.581,9.352
		c-1.407,3.554-2.247,6.804-2.514,9.753H813.924z"/>
	<path fill="#72BBF9" d="M857.16,255.028c0-1.81,0.354-3.418,1.056-4.826c0.706-1.408,1.608-2.564,2.716-3.469
		c1.104-0.905,2.379-1.591,3.821-2.061c1.439-0.468,2.899-0.704,4.374-0.704c1.407,0,2.78,0.219,4.122,0.654
		c1.341,0.437,2.548,1.073,3.619,1.91c1.071,0.839,1.962,1.91,2.664,3.218c0.706,1.307,1.09,2.833,1.158,4.575
		c0,0.067,0.015,0.502,0.049,1.307c0.033,0.804,0.051,1.727,0.051,2.766c0,1.04,0,1.961,0,2.765s0,1.241,0,1.307
		c1.542-5.697,4.49-10.407,8.849-14.128c4.357-3.72,10.189-5.58,17.495-5.58c1.676,0,3.168,0.286,4.476,0.854
		c1.306,0.57,2.396,1.292,3.268,2.162c0.87,0.873,1.524,1.878,1.961,3.017c0.436,1.141,0.654,2.313,0.654,3.52
		c0,1.207-0.219,2.38-0.654,3.519c-0.437,1.141-1.107,2.162-2.01,3.067c-0.907,0.905-2.047,1.644-3.419,2.212
		c-1.376,0.571-2.967,0.855-4.777,0.855c-3.888,0-7.425,0.57-10.609,1.709c-3.184,1.141-5.898,2.866-8.144,5.178
		c-2.246,2.313-3.989,4.978-5.228,7.994c-1.241,3.017-1.861,6.873-1.861,11.564v45.047c0,1.877-0.352,3.502-1.057,4.876
		c-0.702,1.375-1.608,2.531-2.713,3.47c-1.107,0.94-2.382,1.644-3.821,2.111c-1.442,0.47-2.9,0.704-4.374,0.704
		c-1.475,0-2.9-0.234-4.272-0.704c-1.376-0.468-2.615-1.157-3.723-2.062c-1.104-0.905-1.995-2.062-2.663-3.469
		c-0.671-1.408-1.007-3.05-1.007-4.927V255.028z"/>
	<path fill="#72BBF9" d="M214.631,338.441c27.225-12.127,197.459-17.39,290.359,17.618c68.586,25.846,99.985,32.492,189.907,28.373
		c89.923-4.118,244.603-62.465,244.603-62.465s-104.784,94.205-274.805,103.65c-82.371,4.576-137.817-9.781-179.387-25.626
		c-58.235-22.2-90.482-40.347-143.084-50.298c-38.455-7.274-93.201-14.335-127.594-3.702"/>
	<g>
		<g>
			<path fill="none" stroke="#FFFFFF" stroke-width="3" stroke-miterlimit="10" d="M381.252,344.519
				c3.408,0.191,7.608,0.789,12.374,1.699"/>
			<path fill="none" stroke="#FFFFFF" stroke-width="3" stroke-miterlimit="10" stroke-dasharray="25.9279,25.9279" d="
				M418.825,352.291c30.855,8.503,67.53,21.439,78.865,25.735c16.905,6.406,57.23,27.446,157.853,27.457
				c32.435,0.003,77.167-7.663,104.702-13.073"/>
			<path fill="none" stroke="#FFFFFF" stroke-width="3" stroke-miterlimit="10" d="M772.954,389.831
				c7.641-1.601,12.212-2.653,12.212-2.653"/>
		</g>
	</g>
	<g>
		<path fill="#72BBF9" d="M555.311,277.477l-11.675-1.644l2.063-14.954l-94.197-10.097l0.196-1.935l-1.266-0.185l6.594-47.348
			c-5.153,0.104-8.474-3.865-8.639-4.097c-0.048-0.082-0.807-1.033-1.808-2.324c-0.995-1.305-2.271-2.942-3.405-4.386
			c-0.88-1.018-1.208-2.706-0.764-4.457c0.636-2.496,2.626-4.146,4.473-3.676c0.081,0.02,0.163,0.041,0.238,0.078
			c4.771,1.664,11.84,4.066,16.5,5.08c7.813,1.711,14.213,2.874,18.638,4c0.905,0.231,1.733,0.58,2.432,1.016
			c1.057,0.667,1.558,2.295,1.128,3.979c-0.115,0.455-0.279,0.827-0.467,1.158l-17.856,1.272l-5.508,39.479l85.562,9.147
			l7.741-55.51l-22.398-5.7l2.369-9.313l33.262,8.465l-0.731,2.872L555.311,277.477z"/>
		<g>
			<g>
				<g>
					<path fill="#72BBF9" d="M608.298,188.624c0.042-0.235,0.062-0.462,0.092-0.691l0.097-0.678
						c0.022-0.116,0.021-0.228,0.025-0.362c2.297-19.224-10.84-36.793-29.913-40l-2.24-0.376l-3.094-0.52
						c-3.772-0.633-7.355,1.934-7.992,5.711c-0.641,3.783,1.912,7.376,5.682,8.012l5.336,0.896
						c12.129,2.045,20.331,13.572,18.294,25.69l-0.578,3.804c-0.631,3.733,1.907,7.287,5.662,7.919
						c1.809,0.304,3.639-0.113,5.139-1.176c1.494-1.061,2.495-2.639,2.794-4.449L608.298,188.624z"/>
					<path fill="#72BBF9" d="M630.403,196.057l0.538-3.209c0.004-0.01,0.015-0.024,0.005-0.042l0.435-2.542
						c0.074-0.444,0.094-0.883,0.077-1.317c3.161-30.919-17.951-59.494-48.784-65.301c-0.145-0.031-0.271-0.094-0.427-0.12
						l-5.797-0.974c-3.438-0.581-6.694,1.753-7.277,5.212c-0.58,3.453,1.728,6.726,5.174,7.306l5.791,0.974
						c0.046,0.003,0.085,0.003,0.119,0.012c24.993,4.657,41.898,28.222,38.403,53.335l-0.771,4.564
						c-0.577,3.435,1.759,6.699,5.21,7.281C626.556,201.81,629.825,199.493,630.403,196.057z"/>
				</g>
			</g>
		</g>
	</g>
</g>
</svg>
