<?xml version="1.0" encoding="utf-8"?>
<!-- Generator: Adobe Illustrator 19.2.1, SVG Export Plug-In . SVG Version: 6.00 Build 0)  -->
<svg version="1.1" id="Calque_1" xmlns="http://www.w3.org/2000/svg" xmlns:xlink="http://www.w3.org/1999/xlink" x="0px" y="0px"
	 viewBox="0 0 100 125" style="enable-background:new 0 0 100 125;" xml:space="preserve">
<style type="text/css">
	.st0{fill:#76BBF9;}
</style>
<path class="st0" d="M50,10c-22.1,0-40,17.9-40,40s17.9,40,40,40c10.1,0,19.8-3.8,27.2-10.7c1-0.9,1.1-2.5,0.1-3.5s-2.5-1.1-3.5-0.1
	C67.3,81.7,58.8,85,50,85c-19.3,0-35-15.7-35-35s15.7-35,35-35s35,15.7,35,35v7.5c0,4.1-3.4,7.5-7.5,7.5S70,61.6,70,57.5v-25
	c0-1.4-1.1-2.5-2.5-2.5S65,31.1,65,32.5v4.3c-3.7-4.2-9-6.8-15-6.8c-11,0-20,9-20,20s9,20,20,20c6.5,0,12.2-3.1,15.9-7.9
	c1.8,4.6,6.3,7.9,11.6,7.9C84.4,70,90,64.4,90,57.5V50C90,27.9,72.1,10,50,10z M50,65c-8.3,0-15-6.7-15-15s6.7-15,15-15
	s15,6.7,15,15S58.3,65,50,65z"/>
</svg>
