<?xml version="1.0" encoding="utf-8"?>
<!-- Generator: Adobe Illustrator 19.2.1, SVG Export Plug-In . SVG Version: 6.00 Build 0)  -->
<svg version="1.1" id="Calque_1" xmlns="http://www.w3.org/2000/svg" xmlns:xlink="http://www.w3.org/1999/xlink" x="0px" y="0px"
	 viewBox="0 0 76.8 84.8" style="enable-background:new 0 0 76.8 84.8;" xml:space="preserve">
<style type="text/css">
	.st0{fill:#FFFFFF;}
</style>
<path class="st0" d="M61.2,53.3c-3.2-1.6-4.3-5.8-4.8-13.6c-0.6-9.1-3.2-17.5-13.8-19.2c-0.3-3.2-2.2-4.5-4.3-4.5
	c-2,0-3.9,1.5-4.1,4.5c-10.6,1.7-13.3,10-13.8,19.2c-0.4,7.3-1.3,12-4.8,13.6c-1.3,0.6-1.3,0.4-1.3,2.8c0,2.2,0,2.2,2.2,2.2h43.9
	c2.2,0,2.2,0,2.2-2.2C62.5,54,62.6,54,61.2,53.3z M21.3,54c2.4-3,2.9-7.7,3.3-14.1c0.8-11.9,4.6-15.6,13.8-15.6S51.5,28,52.2,39.8
	c0.4,6.4,0.9,11.1,3.4,14.2C55.6,54,21.3,54,21.3,54z M38.3,68.8c3.2,0,6.5-1.9,6.5-6.3h-13C31.9,66.8,35,68.8,38.3,68.8z"/>
</svg>
