<?xml version="1.0" encoding="utf-8"?>
<!-- Generator: Adobe Illustrator 19.2.1, SVG Export Plug-In . SVG Version: 6.00 Build 0)  -->
<svg version="1.1"
	 id="Calque_1" xmlns:cc="http://creativecommons.org/ns#" xmlns:dc="http://purl.org/dc/elements/1.1/" xmlns:inkscape="http://www.inkscape.org/namespaces/inkscape" xmlns:rdf="http://www.w3.org/1999/02/22-rdf-syntax-ns#" xmlns:sodipodi="http://sodipodi.sourceforge.net/DTD/sodipodi-0.dtd" xmlns:svg="http://www.w3.org/2000/svg"
	 xmlns="http://www.w3.org/2000/svg" xmlns:xlink="http://www.w3.org/1999/xlink" x="0px" y="0px" viewBox="0 0 45.5 48"
	 style="enable-background:new 0 0 45.5 48;" xml:space="preserve">
<style type="text/css">
	.st0{fill:#72BBF9;}
</style>
<path class="st0" d="M23,3C11.4,3,2,12.4,2,24s9.4,21,21,21s21-9.4,21-21l0,0C44,12.4,34.6,3,23,3z M23,7c9.4,0,17,7.6,17,17
	s-7.6,17-17,17S6,33.4,6,24S13.6,7,23,7L23,7z"/>
<path class="st0" d="M31.5,13.7c-0.1-0.1-0.3-0.2-0.4-0.2h-18c-0.3,0-0.6,0.3-0.6,0.6v19.8c0,0.3,0.3,0.6,0.6,0.6h19.8
	c0.3,0,0.6-0.3,0.6-0.6V16c0-0.2-0.1-0.3-0.2-0.4L31.5,13.7z M16.8,20.9v-6.2h1.9v6.2H16.8z M19.9,14.7h8v6.2h-8V14.7z M29.2,33.3
	H16.8v-8c0-0.3,0.3-0.6,0.6-0.6l0,0h11.1c0.3,0,0.6,0.3,0.6,0.6l0,0v8H29.2z M32.3,33.3h-1.8v-8c0-1-0.8-1.8-1.9-1.8l0,0H17.4
	c-1,0-1.9,0.8-1.9,1.8l0,0v8h-1.9V14.7h1.9v6.8c0,0.3,0.3,0.6,0.6,0.6l0,0h12.4c0.3,0,0.6-0.3,0.6-0.6l0,0v-6.8h1.6l1.5,1.5
	L32.3,33.3L32.3,33.3z"/>
<path class="st0" d="M27.3,25.8h-8.7c-0.3,0-0.6,0.3-0.6,0.6c0,0.3,0.3,0.6,0.6,0.6l0,0h8.7c0.3,0,0.6-0.3,0.6-0.6
	C27.9,26.1,27.7,25.9,27.3,25.8L27.3,25.8z"/>
<path class="st0" d="M27.3,28.3h-8.7c-0.3,0-0.6,0.3-0.6,0.6c0,0.3,0.3,0.6,0.6,0.6h8.7c0.3,0,0.6-0.3,0.6-0.6
	C27.9,28.6,27.7,28.3,27.3,28.3z"/>
<path class="st0" d="M27.3,30.8h-8.7c-0.3,0-0.6,0.3-0.6,0.6c0,0.3,0.3,0.6,0.6,0.6l0,0h8.7c0.3,0,0.6-0.3,0.6-0.6
	C27.9,31.1,27.7,30.8,27.3,30.8L27.3,30.8z"/>
<path class="st0" d="M26.1,15.3h-2.5c-0.3,0-0.6,0.3-0.6,0.6l0,0v3.7c0,0.3,0.3,0.6,0.6,0.6l0,0h2.5c0.3,0,0.6-0.3,0.6-0.6l0,0V16
	C26.7,15.6,26.5,15.3,26.1,15.3L26.1,15.3z M25.5,19.1h-1.3v-2.5h1.2L25.5,19.1L25.5,19.1z"/>
</svg>
