<?xml version="1.0" encoding="utf-8"?>
<!-- Generator: Adobe Illustrator 19.2.1, SVG Export Plug-In . SVG Version: 6.00 Build 0)  -->
<svg version="1.1" id="Calque_1" xmlns="http://www.w3.org/2000/svg" xmlns:xlink="http://www.w3.org/1999/xlink" x="0px" y="0px"
	 viewBox="0 0 42 42" style="enable-background:new 0 0 42 42;" xml:space="preserve">
<style type="text/css">
	.st0{fill:#72BBF9;}
</style>
<title>floppy1</title>
<path class="st0" d="M21,0C9.4,0,0,9.4,0,21s9.4,21,21,21s21-9.4,21-21l0,0C42,9.4,32.6,0,21,0z M21,4c9.4,0,17,7.6,17,17
	s-7.6,17-17,17S4,30.4,4,21C4,11.6,11.6,4,21,4L21,4z"/>
<path class="st0" d="M29.5,10.7c-0.1-0.1-0.3-0.2-0.4-0.2H11.1c-0.3,0-0.6,0.3-0.6,0.6v19.8c0,0.3,0.3,0.6,0.6,0.6h19.8
	c0.3,0,0.6-0.3,0.6-0.6V13c0-0.2-0.1-0.3-0.2-0.4L29.5,10.7z M14.8,17.9v-6.2h1.9v6.2C16.7,17.9,14.8,17.9,14.8,17.9z M17.9,11.7h8
	v6.2h-8C17.9,17.9,17.9,11.7,17.9,11.7z M27.2,30.3H14.8v-8c0-0.3,0.3-0.6,0.6-0.6h0h11.1c0.3,0,0.6,0.3,0.6,0.6l0,0V30.3z
	 M30.3,30.3h-1.8v-8c0-1-0.8-1.8-1.9-1.8l0,0H15.4c-1,0-1.9,0.8-1.9,1.8l0,0v8h-1.9V11.7h1.9v6.8c0,0.3,0.3,0.6,0.6,0.6l0,0h12.4
	c0.3,0,0.6-0.3,0.6-0.6l0,0v-6.8h1.6l1.5,1.5L30.3,30.3L30.3,30.3z"/>
<path class="st0" d="M25.3,22.8h-8.7c-0.3,0-0.6,0.3-0.6,0.6c0,0.3,0.3,0.6,0.6,0.6c0,0,0,0,0,0h8.7c0.3,0,0.6-0.3,0.6-0.6
	C25.9,23.1,25.7,22.9,25.3,22.8C25.3,22.8,25.3,22.8,25.3,22.8z"/>
<path class="st0" d="M25.3,25.3h-8.7c-0.3,0-0.6,0.3-0.6,0.6c0,0.3,0.3,0.6,0.6,0.6h8.7c0.3,0,0.6-0.3,0.6-0.6
	C25.9,25.6,25.7,25.3,25.3,25.3z"/>
<path class="st0" d="M25.3,27.8h-8.7c-0.3,0-0.6,0.3-0.6,0.6c0,0.3,0.3,0.6,0.6,0.6c0,0,0,0,0,0h8.7c0.3,0,0.6-0.3,0.6-0.6
	C25.9,28.1,25.7,27.8,25.3,27.8C25.3,27.8,25.3,27.8,25.3,27.8z"/>
<path class="st0" d="M24.1,12.3h-2.5c-0.3,0-0.6,0.3-0.6,0.6c0,0,0,0,0,0v3.7c0,0.3,0.3,0.6,0.6,0.6h0h2.5c0.3,0,0.6-0.3,0.6-0.6
	l0,0V13C24.7,12.6,24.5,12.3,24.1,12.3L24.1,12.3z M23.5,16.1h-1.3v-2.5h1.2L23.5,16.1L23.5,16.1z"/>
</svg>
