<?xml version="1.0" encoding="utf-8"?>
<!-- Generator: Adobe Illustrator 19.2.1, SVG Export Plug-In . SVG Version: 6.00 Build 0)  -->
<svg version="1.1" id="Calque_1" xmlns="http://www.w3.org/2000/svg" xmlns:xlink="http://www.w3.org/1999/xlink" x="0px" y="0px"
	 viewBox="0 0 145.5 144.5" style="enable-background:new 0 0 145.5 144.5;" xml:space="preserve">
<style type="text/css">
	.st0{fill:none;stroke:#000000;stroke-width:7;stroke-miterlimit:10;}
</style>
<g>
	<path d="M107.8,30.5c-0.5-0.5-1.1-0.7-1.8-0.7H33.5c-1.4,0-2.5,1.1-2.5,2.5v80c0,1.4,1.1,2.5,2.5,2.5h80c1.4,0,2.5-1.1,2.5-2.5
		V39.8c0-0.7-0.3-1.3-0.7-1.8L107.8,30.5z M48.5,59.8v-25H56v25H48.5z M61,34.8h32.5v25H61V34.8z M98.5,109.8h-50V77.2
		c0-1.4,1.1-2.5,2.5-2.5h45c1.4,0,2.5,1.1,2.5,2.5V109.8z M111,109.8h-7.5V77.2c0-4.1-3.4-7.5-7.5-7.5H51c-4.1,0-7.5,3.4-7.5,7.5
		v32.5H36v-75h7.5v27.5c0,1.4,1.1,2.5,2.5,2.5h50c1.4,0,2.5-1.1,2.5-2.5V34.8h6.5l6,6V109.8z"/>
	<path d="M91,79.8H56c-1.4,0-2.5,1.1-2.5,2.5s1.1,2.5,2.5,2.5h35c1.4,0,2.5-1.1,2.5-2.5S92.4,79.8,91,79.8z"/>
	<path d="M91,89.8H56c-1.4,0-2.5,1.1-2.5,2.5s1.1,2.5,2.5,2.5h35c1.4,0,2.5-1.1,2.5-2.5S92.4,89.8,91,89.8z"/>
	<path d="M91,99.8H56c-1.4,0-2.5,1.1-2.5,2.5s1.1,2.5,2.5,2.5h35c1.4,0,2.5-1.1,2.5-2.5S92.4,99.8,91,99.8z"/>
	<path d="M86,37.2H76c-1.4,0-2.5,1.1-2.5,2.5v15c0,1.4,1.1,2.5,2.5,2.5h10c1.4,0,2.5-1.1,2.5-2.5v-15C88.5,38.4,87.4,37.2,86,37.2z
		 M83.5,52.2h-5v-10h5V52.2z"/>
</g>
<circle class="st0" cx="73.5" cy="72.2" r="66.9"/>
</svg>
