<?xml version="1.0" encoding="utf-8"?>
<!-- Generator: Adobe Illustrator 19.2.1, SVG Export Plug-In . SVG Version: 6.00 Build 0)  -->
<svg version="1.1"
	 id="Calque_1" xmlns:cc="http://creativecommons.org/ns#" xmlns:dc="http://purl.org/dc/elements/1.1/" xmlns:inkscape="http://www.inkscape.org/namespaces/inkscape" xmlns:rdf="http://www.w3.org/1999/02/22-rdf-syntax-ns#" xmlns:sodipodi="http://sodipodi.sourceforge.net/DTD/sodipodi-0.dtd" xmlns:svg="http://www.w3.org/2000/svg"
	 xmlns="http://www.w3.org/2000/svg" xmlns:xlink="http://www.w3.org/1999/xlink" x="0px" y="0px" viewBox="0 0 80 100"
	 style="enable-background:new 0 0 80 100;" xml:space="preserve">
<style type="text/css">
	.st0{fill:#76BBF9;}
</style>
<g transform="translate(0,-972.36218)">
	<path class="st0" d="M17.7,1004.4l-3.4,2l2.3,3.9H12v4h4.6l-2.3,3.9l3.4,2l2.3-3.9l2.3,3.9l3.4-2l-2.3-3.9H28v-4h-4.6l2.3-3.9
		l-3.4-2l-2.3,3.9L17.7,1004.4z M37.7,1004.4l-3.4,2l2.3,3.9H32v4h4.6l-2.3,3.9l3.4,2l2.3-3.9l2.3,3.9l3.4-2l-2.3-3.9H48v-4h-4.6
		l2.3-3.9l-3.4-2l-2.3,3.9L37.7,1004.4z M57.7,1004.4l-3.4,2l2.3,3.9H52v4h4.6l-2.3,3.9l3.4,2l2.3-3.9l2.3,3.9l3.4-2l-2.3-3.9H68v-4
		h-4.6l2.3-3.9l-3.4-2l-2.3,3.9L57.7,1004.4z"/>
</g>
</svg>
