<?xml version="1.0" encoding="utf-8"?>
<!-- Generator: Adobe Illustrator 19.2.1, SVG Export Plug-In . SVG Version: 6.00 Build 0)  -->
<svg version="1.1" id="Calque_1" xmlns="http://www.w3.org/2000/svg" xmlns:xlink="http://www.w3.org/1999/xlink" x="0px" y="0px"
	 viewBox="0 0 100 125" style="enable-background:new 0 0 100 125;" xml:space="preserve">
<style type="text/css">
	.st0{fill:#76BBF9;}
</style>
<path class="st0" d="M75,47.5h5C80,32.3,67.7,20,52.5,20v5C64.9,25,75,35.1,75,47.5z"/>
<path class="st0" d="M87.5,65l-20-7.5L60,65c-9.9-6.6-18.4-15.1-25-25l7.5-7.5l-7.5-20h-1.4c-5.5,0-10.8,2.2-14.7,6.1l0,0
	c-4.1,4.1-6.4,9.7-6.4,15.5l0,0c0,3.9,1,7.7,3,11C25,61.4,38.6,75,54.9,84.5c3.4,2,7.2,3,11,3c5.8,0,11.4-2.3,15.5-6.4l0,0
	c3.9-3.9,6.1-9.2,6.1-14.7V65z"/>
<path class="st0" d="M52.5,10v5C70.4,15,85,29.6,85,47.5h5C90,26.8,73.2,10,52.5,10z"/>
</svg>
