<?xml version="1.0" encoding="utf-8"?>
<!-- Generator: Adobe Illustrator 19.2.1, SVG Export Plug-In . SVG Version: 6.00 Build 0)  -->
<svg version="1.1" id="Calque_1" xmlns="http://www.w3.org/2000/svg" xmlns:xlink="http://www.w3.org/1999/xlink" x="0px" y="0px"
	 viewBox="0 0 38 50" style="enable-background:new 0 0 38 50;" xml:space="preserve">
<style type="text/css">
	.st0{fill:#76BBF9;}
</style>
<path class="st0" d="M19,20.1c-5.5,0-10-4.5-10-10S13.5,0,19,0s10,4.5,10,10S24.5,20.1,19,20.1z M19,2c-4.4,0-8,3.6-8,8s3.6,8,8,8
	s8-3.6,8-8S23.4,2,19,2z"/>
<path class="st0" d="M32.1,40h-26c-0.9,0-1.8-0.3-2.6-0.8c-2.2-1.6-3.2-4.2-2.6-6.8c1.2-5.2,3.3-8.7,7.1-12.3
	c1.3-1.2,3.2-1.3,4.7-0.4c3.8,2.4,8.8,2.4,12.6,0c1.4-0.9,3.4-0.8,4.6,0.3c3.5,3.1,5.9,7.3,7.1,12.4c0.7,2.8-0.6,5.6-3,7.1
	C33.5,39.8,32.8,40,32.1,40z M10.6,21.1c-0.4,0-0.9,0.2-1.2,0.5C5.8,24.9,4,28.1,2.9,32.9c-0.4,1.8,0.3,3.6,1.8,4.7
	C5,37.8,5.5,38,6.1,38h26.1c0.3,0,0.6-0.1,0.9-0.2c1.7-1,2.5-3,2.1-4.9c-1.1-4.7-3.3-8.5-6.5-11.4c-0.5-0.5-1.6-0.6-2.2-0.1
	c-2.2,1.5-4.8,2.2-7.4,2.2s-5.1-0.8-7.3-2.2C11.3,21.2,11,21.1,10.6,21.1z"/>
</svg>
