<?xml version="1.0" encoding="utf-8"?>
<!-- Generator: Adobe Illustrator 19.2.1, SVG Export Plug-In . SVG Version: 6.00 Build 0)  -->
<svg version="1.1" id="Calque_1" xmlns="http://www.w3.org/2000/svg" xmlns:xlink="http://www.w3.org/1999/xlink" x="0px" y="0px"
	 viewBox="0 0 109 103" style="enable-background:new 0 0 109 103;" xml:space="preserve">
<style type="text/css">
	.st0{fill:#76BBF9;}
</style>
<path class="st0" d="M39,45.4c-0.5-0.8-0.9-1.8-1.1-2.8c-0.3-3.2,2-6.1,5.3-6.5l13.1-1.3l-2.7-14.7c-0.1-0.4-0.3-0.8-0.3-1.2
	c0-0.1,0-0.3,0-0.5l-0.1-0.4h0.1c0.3-1.8,1.6-3.2,3.5-3.4c1.9-0.1,3.5,0.9,4,2.7H61l7.9,21.4h-0.1c0.1,0.3,0.1,0.5,0.1,0.9
	c0.3,3.2-2,6.1-5.3,6.5l-13.1,1.2l2.8,15.5c0,0.3,0.1,0.4,0.1,0.7c0.3,2.2-1.3,4-3.5,4.3c-2.2,0.3-4-1.3-4.3-3.5L39,45.4z M12.8,53
	c-0.8-0.9-0.9-2.4-0.3-3.5c0.8-1.1,2.2-1.5,3.4-0.9l0,0l15.2,5.5l0,0c0.1,0.1,0.4,0.1,0.5,0.3c1.9,1.3,2.3,3.9,1.1,5.8l-5.4,7.5
	l9.6,5.5c0.1,0,0.3,0.1,0.4,0.3c1.2,0.9,1.6,2.6,0.7,3.9c-0.9,1.2-2.6,1.6-3.9,0.7l-13.2-4.8c-0.7,0-1.3-0.3-2-0.7
	c-1.9-1.3-2.3-3.9-1.1-5.8l5.4-7.5l-9.3-5.4c-0.3-0.1-0.5-0.3-0.8-0.4c-0.1,0-0.1-0.1-0.3-0.3L12.8,53L12.8,53z M65.4,68.8l8.1-11.6
	c0.3-0.7,0.7-1.2,1.2-1.8c1.8-1.5,4.3-1.2,5.8,0.4l6.1,7.1l7.4-7.5c0.1-0.3,0.3-0.4,0.5-0.7c0.1-0.1,0.1-0.1,0.3-0.3l0.1-0.3l0,0
	c1.1-0.5,2.6-0.3,3.4,0.7c0.8,0.9,0.8,2.4,0.1,3.5l0,0l-9.2,13.2l0,0c-0.1,0.1-0.3,0.3-0.4,0.4c-1.8,1.5-4.3,1.2-5.8-0.4l-5.9-7
	l-7.8,7.9c-0.1,0.1-0.1,0.3-0.3,0.3c-1.2,0.9-3,0.8-3.9-0.3C64.1,71.5,64.2,69.7,65.4,68.8z"/>
</svg>
