<?xml version="1.0" encoding="utf-8"?>
<!-- Generator: Adobe Illustrator 19.2.1, SVG Export Plug-In . SVG Version: 6.00 Build 0)  -->
<svg version="1.1" id="Calque_1" xmlns="http://www.w3.org/2000/svg" xmlns:xlink="http://www.w3.org/1999/xlink" x="0px" y="0px"
	 viewBox="0 0 109 136.2" style="enable-background:new 0 0 109 136.2;" xml:space="preserve">
<style type="text/css">
	.st0{fill:#FFFFFF;}
</style>
<path class="st0" d="M25.8,71.2h9.7c1.7,0,3.1-1.2,3.4-2.8c1.3-6.8,7.3-12,14.5-12s13.2,5.2,14.5,12c0.4,1.6,1.7,2.7,3.4,2.7H81
	c0,15.2-12.3,27.6-27.6,27.6C38.2,98.8,25.8,86.4,25.8,71.2z M42.2,32.5c-0.4-0.6-0.7-1.3-0.8-2.1c-0.2-2.4,1.5-4.5,3.9-4.8l9.7-1
	l-2-10.9c-0.1-0.3-0.2-0.6-0.2-0.9c0-0.1,0-0.2,0-0.4l-0.1-0.3h0.1c0.2-1.3,1.2-2.4,2.6-2.5c1.4-0.1,2.6,0.7,3,2h0.1l5.9,15.9h-0.1
	c0.1,0.2,0.1,0.4,0.1,0.7c0.2,2.4-1.5,4.5-3.9,4.8l-9.7,0.9l2.1,11.5c0,0.2,0.1,0.3,0.1,0.5c0.2,1.6-1,3-2.6,3.2s-3-1-3.2-2.6
	L42.2,32.5z M22.7,38.2c-0.6-0.7-0.7-1.8-0.2-2.6c0.6-0.8,1.6-1.1,2.5-0.7l0,0L36.3,39l0,0c0.1,0.1,0.3,0.1,0.4,0.2
	c1.4,1,1.7,2.9,0.8,4.3l-4,5.6l7.1,4.1c0.1,0,0.2,0.1,0.3,0.2c0.9,0.7,1.2,1.9,0.5,2.9c-0.7,0.9-1.9,1.2-2.9,0.5l-9.8-3.6
	c-0.5,0-1-0.2-1.5-0.5c-1.4-1-1.7-2.9-0.8-4.3l4-5.6l-6.9-4c-0.2-0.1-0.4-0.2-0.6-0.3c-0.1,0-0.1-0.1-0.2-0.2L22.7,38.2L22.7,38.2z
	 M61.8,49.9l6-8.6c0.2-0.5,0.5-0.9,0.9-1.3c1.3-1.1,3.2-0.9,4.3,0.3l4.5,5.3L83,40c0.1-0.2,0.2-0.3,0.4-0.5c0.1-0.1,0.1-0.1,0.2-0.2
	l0.1-0.2l0,0c0.8-0.4,1.9-0.2,2.5,0.5s0.6,1.8,0.1,2.6l0,0L79.5,52l0,0c-0.1,0.1-0.2,0.2-0.3,0.3c-1.3,1.1-3.2,0.9-4.3-0.3l-4.4-5.2
	l-5.8,5.9c-0.1,0.1-0.1,0.2-0.2,0.2c-0.9,0.7-2.2,0.6-2.9-0.2C60.8,51.9,60.9,50.6,61.8,49.9z"/>
</svg>
