<?xml version="1.0" encoding="utf-8"?>
<!-- Generator: Adobe Illustrator 19.2.1, SVG Export Plug-In . SVG Version: 6.00 Build 0)  -->
<svg version="1.1" id="Calque_1" xmlns="http://www.w3.org/2000/svg" xmlns:xlink="http://www.w3.org/1999/xlink" x="0px" y="0px"
	 viewBox="0 0 76.8 84.8" style="enable-background:new 0 0 76.8 84.8;" xml:space="preserve">
<style type="text/css">
	.st0{fill:#FFFFFF;}
</style>
<path class="st0" d="M19.4,47.8h6.4c1.1,0,2-0.8,2.3-1.8c0.9-4.5,4.8-7.9,9.6-7.9c4.8,0,8.7,3.4,9.6,7.9c0.2,1,1.2,1.8,2.3,1.8h6.4
	c0,10.1-8.1,18.2-18.2,18.2C27.6,66,19.4,57.8,19.4,47.8z M30.3,22.2c-0.3-0.4-0.5-0.9-0.5-1.4c-0.2-1.6,1-3,2.6-3.1l6.4-0.6
	l-1.4-7.3c-0.1-0.2-0.1-0.4-0.1-0.6c0-0.1,0-0.2,0-0.2l0-0.2l0.1,0c0.1-0.9,0.8-1.6,1.7-1.7c0.9-0.1,1.7,0.5,2,1.3l0.1,0l3.9,10.5
	l0,0c0,0.1,0.1,0.3,0.1,0.4c0.2,1.6-1,3-2.6,3.1L36,23.1l1.4,7.6c0,0.1,0,0.2,0.1,0.3c0.1,1.1-0.7,2-1.7,2.1c-1.1,0.1-2-0.7-2.1-1.7
	L30.3,22.2z M17.4,26c-0.4-0.5-0.5-1.2-0.1-1.7c0.4-0.5,1-0.7,1.6-0.5l0,0l7.4,2.8l0,0c0.1,0,0.2,0.1,0.3,0.2
	c0.9,0.6,1.1,1.9,0.5,2.8l-2.6,3.7l4.7,2.7c0.1,0,0.1,0.1,0.2,0.1c0.6,0.4,0.8,1.3,0.3,1.9c-0.4,0.6-1.3,0.8-1.9,0.3l-6.5-2.4
	c-0.3,0-0.7-0.1-1-0.4c-0.9-0.6-1.1-1.9-0.5-2.8l2.6-3.7L18,26.3c-0.1,0-0.3-0.1-0.4-0.2C17.6,26.1,17.5,26.1,17.4,26L17.4,26
	L17.4,26z M43.2,33.7l3.9-5.7c0.1-0.3,0.3-0.6,0.6-0.8c0.9-0.7,2.1-0.6,2.9,0.2l2.9,3.5l3.7-3.7c0.1-0.1,0.2-0.2,0.3-0.3
	c0,0,0.1-0.1,0.1-0.1l0.1-0.1l0,0c0.5-0.3,1.2-0.2,1.7,0.3c0.4,0.5,0.4,1.2,0.1,1.7l0,0l-4.5,6.5l0,0c-0.1,0.1-0.1,0.2-0.2,0.2
	c-0.9,0.7-2.1,0.6-2.9-0.2l-2.9-3.4l-3.8,3.9c0,0.1-0.1,0.1-0.2,0.2c-0.6,0.5-1.4,0.4-1.9-0.2C42.5,35,42.6,34.2,43.2,33.7z"/>
</svg>
