<?xml version="1.0" encoding="utf-8"?>
<!-- Generator: Adobe Illustrator 19.2.1, SVG Export Plug-In . SVG Version: 6.00 Build 0)  -->
<svg version="1.1" id="Calque_1" xmlns="http://www.w3.org/2000/svg" xmlns:xlink="http://www.w3.org/1999/xlink" x="0px" y="0px"
	 viewBox="0 0 52 65" style="enable-background:new 0 0 52 65;" xml:space="preserve">
<style type="text/css">
	.st0{fill:#72BBF9;}
</style>
<title>stop</title>
<path class="st0" d="M26,6C11.6,6,0,17.6,0,32s11.6,26,26,26s26-11.6,26-26S40.4,6,26,6z M26,54C13.8,54,4,44.2,4,32s9.8-22,22-22
	s22,9.8,22,22S38.2,54,26,54z M36,39.5c0,1.4-1.1,2.5-2.5,2.5h-15c-1.4,0-2.5-1.1-2.5-2.5v-15c0-1.4,1.1-2.5,2.5-2.5h15
	c1.4,0,2.5,1.1,2.5,2.5V39.5z"/>
</svg>
